<mxfile host="app.diagrams.net" agent="Mozilla/5.0 (Windows NT 10.0; Win64; x64) AppleWebKit/537.36 (KHTML, like Gecko) Chrome/138.0.0.0 Safari/537.36" version="27.0.1">
  <diagram name="第 1 页" id="7VcJdvFbt3Qk-5duzQfR">
    <mxGraphModel dx="849" dy="490" grid="0" gridSize="10" guides="1" tooltips="1" connect="1" arrows="1" fold="1" page="1" pageScale="1" pageWidth="3000" pageHeight="1000" math="0" shadow="0">
      <root>
        <mxCell id="0" />
        <mxCell id="1" parent="0" />
        <mxCell id="hD1sjiMyr9kNon0vksFS-1" value="" style="whiteSpace=wrap;html=1;aspect=fixed;" vertex="1" parent="1">
          <mxGeometry x="775" y="490" width="160" height="160" as="geometry" />
        </mxCell>
        <mxCell id="hD1sjiMyr9kNon0vksFS-2" value="" style="shape=flexArrow;endArrow=classic;startArrow=classic;html=1;rounded=0;fontColor=none;noLabel=1;strokeColor=#007FFF;entryX=0;entryY=0.5;entryDx=0;entryDy=0;endWidth=10.769230769230768;endSize=4.844230769230769;startWidth=10.769230769230768;startSize=6.0673076923076925;" edge="1" parent="1" target="hD1sjiMyr9kNon0vksFS-3">
          <mxGeometry width="100" height="100" relative="1" as="geometry">
            <mxPoint x="935" y="529.76" as="sourcePoint" />
            <mxPoint x="1050" y="530" as="targetPoint" />
            <Array as="points" />
          </mxGeometry>
        </mxCell>
        <mxCell id="hD1sjiMyr9kNon0vksFS-4" value="SDIO" style="edgeLabel;html=1;align=center;verticalAlign=middle;resizable=0;points=[];fontColor=#007FFF;" vertex="1" connectable="0" parent="hD1sjiMyr9kNon0vksFS-2">
          <mxGeometry x="-0.0498" y="4" relative="1" as="geometry">
            <mxPoint y="4" as="offset" />
          </mxGeometry>
        </mxCell>
        <mxCell id="hD1sjiMyr9kNon0vksFS-3" value="RTL8723&lt;div&gt;无线网卡&lt;/div&gt;" style="whiteSpace=wrap;html=1;aspect=fixed;fontSize=11;" vertex="1" parent="1">
          <mxGeometry x="1010" y="500" width="60" height="60" as="geometry" />
        </mxCell>
        <mxCell id="hD1sjiMyr9kNon0vksFS-6" value="Arm Cortex-A7" style="text;html=1;align=center;verticalAlign=middle;resizable=0;points=[];autosize=1;strokeColor=#6c8ebf;fillColor=#dae8fc;" vertex="1" parent="1">
          <mxGeometry x="795" y="610" width="120" height="30" as="geometry" />
        </mxCell>
        <mxCell id="hD1sjiMyr9kNon0vksFS-7" value="64MB DDR" style="text;html=1;align=center;verticalAlign=middle;resizable=0;points=[];autosize=1;strokeColor=#6c8ebf;fillColor=#dae8fc;" vertex="1" parent="1">
          <mxGeometry x="815" y="570" width="80" height="30" as="geometry" />
        </mxCell>
        <mxCell id="hD1sjiMyr9kNon0vksFS-8" value="全志 V3S" style="text;html=1;align=center;verticalAlign=middle;resizable=0;points=[];autosize=1;strokeColor=#6c8ebf;fillColor=#dae8fc;fontSize=18;" vertex="1" parent="1">
          <mxGeometry x="805" y="510" width="100" height="40" as="geometry" />
        </mxCell>
        <mxCell id="hD1sjiMyr9kNon0vksFS-12" value="" style="shape=flexArrow;endArrow=classic;startArrow=classic;html=1;rounded=0;fontColor=none;noLabel=1;strokeColor=#007FFF;entryX=0;entryY=0.143;entryDx=0;entryDy=0;entryPerimeter=0;endWidth=12.884615384615385;endSize=5.530769230769231;startWidth=12.884615384615385;startSize=6.521153846153846;" edge="1" parent="1" target="hD1sjiMyr9kNon0vksFS-14">
          <mxGeometry width="100" height="100" relative="1" as="geometry">
            <mxPoint x="935" y="609.76" as="sourcePoint" />
            <mxPoint x="1040" y="610" as="targetPoint" />
            <Array as="points" />
          </mxGeometry>
        </mxCell>
        <mxCell id="hD1sjiMyr9kNon0vksFS-13" value="SDIO" style="edgeLabel;html=1;align=center;verticalAlign=middle;resizable=0;points=[];fontColor=#007FFF;" vertex="1" connectable="0" parent="hD1sjiMyr9kNon0vksFS-12">
          <mxGeometry x="-0.0498" y="4" relative="1" as="geometry">
            <mxPoint y="4" as="offset" />
          </mxGeometry>
        </mxCell>
        <mxCell id="hD1sjiMyr9kNon0vksFS-14" value="" style="whiteSpace=wrap;html=1;" vertex="1" parent="1">
          <mxGeometry x="1010" y="580" width="150" height="210" as="geometry" />
        </mxCell>
        <mxCell id="hD1sjiMyr9kNon0vksFS-16" value="TF 卡" style="text;html=1;align=center;verticalAlign=middle;resizable=0;points=[];autosize=1;fontSize=12;" vertex="1" parent="1">
          <mxGeometry x="1060" y="580" width="50" height="30" as="geometry" />
        </mxCell>
        <mxCell id="hD1sjiMyr9kNon0vksFS-17" value="Linux Kernel" style="text;html=1;align=center;verticalAlign=middle;resizable=0;points=[];autosize=1;strokeColor=#d6b656;fillColor=#fff2cc;" vertex="1" parent="1">
          <mxGeometry x="1040" y="660" width="90" height="30" as="geometry" />
        </mxCell>
        <mxCell id="hD1sjiMyr9kNon0vksFS-18" value="Buildroot" style="text;html=1;align=center;verticalAlign=middle;resizable=0;points=[];autosize=1;strokeColor=#d6b656;fillColor=#fff2cc;" vertex="1" parent="1">
          <mxGeometry x="1050" y="705" width="70" height="30" as="geometry" />
        </mxCell>
        <mxCell id="hD1sjiMyr9kNon0vksFS-19" value="UBoot" style="text;html=1;align=center;verticalAlign=middle;resizable=0;points=[];autosize=1;strokeColor=#d6b656;fillColor=#fff2cc;" vertex="1" parent="1">
          <mxGeometry x="1055" y="610" width="60" height="30" as="geometry" />
        </mxCell>
        <mxCell id="hD1sjiMyr9kNon0vksFS-22" value="" style="endArrow=none;html=1;rounded=0;" edge="1" parent="1">
          <mxGeometry width="50" height="50" relative="1" as="geometry">
            <mxPoint x="1070" y="530" as="sourcePoint" />
            <mxPoint x="1100" y="530" as="targetPoint" />
          </mxGeometry>
        </mxCell>
        <mxCell id="hD1sjiMyr9kNon0vksFS-23" value="" style="endArrow=none;html=1;rounded=0;" edge="1" parent="1">
          <mxGeometry width="50" height="50" relative="1" as="geometry">
            <mxPoint x="1100" y="530" as="sourcePoint" />
            <mxPoint x="1100" y="500" as="targetPoint" />
          </mxGeometry>
        </mxCell>
        <mxCell id="hD1sjiMyr9kNon0vksFS-24" value="" style="endArrow=none;html=1;rounded=0;" edge="1" parent="1">
          <mxGeometry width="50" height="50" relative="1" as="geometry">
            <mxPoint x="1100" y="520" as="sourcePoint" />
            <mxPoint x="1110" y="500" as="targetPoint" />
          </mxGeometry>
        </mxCell>
        <mxCell id="hD1sjiMyr9kNon0vksFS-25" value="" style="endArrow=none;html=1;rounded=0;" edge="1" parent="1">
          <mxGeometry width="50" height="50" relative="1" as="geometry">
            <mxPoint x="1100" y="520" as="sourcePoint" />
            <mxPoint x="1090" y="500" as="targetPoint" />
          </mxGeometry>
        </mxCell>
        <mxCell id="hD1sjiMyr9kNon0vksFS-26" value="SPI Flash" style="whiteSpace=wrap;html=1;aspect=fixed;fontSize=11;" vertex="1" parent="1">
          <mxGeometry x="875" y="720" width="70" height="70" as="geometry" />
        </mxCell>
        <mxCell id="hD1sjiMyr9kNon0vksFS-27" value="" style="shape=flexArrow;endArrow=classic;startArrow=classic;html=1;rounded=0;fontColor=none;noLabel=1;strokeColor=#007FFF;exitX=0.719;exitY=1;exitDx=0;exitDy=0;exitPerimeter=0;entryX=0.5;entryY=0;entryDx=0;entryDy=0;endWidth=10.833333333333334;endSize=5.591666666666666;startWidth=10.833333333333334;startSize=6.197222222222222;" edge="1" parent="1" target="hD1sjiMyr9kNon0vksFS-26">
          <mxGeometry width="100" height="100" relative="1" as="geometry">
            <mxPoint x="910.04" y="650" as="sourcePoint" />
            <mxPoint x="920" y="720" as="targetPoint" />
            <Array as="points">
              <mxPoint x="910" y="680" />
            </Array>
          </mxGeometry>
        </mxCell>
        <mxCell id="hD1sjiMyr9kNon0vksFS-28" value="SPI" style="edgeLabel;html=1;align=center;verticalAlign=middle;resizable=0;points=[];fontColor=#007FFF;" vertex="1" connectable="0" parent="hD1sjiMyr9kNon0vksFS-27">
          <mxGeometry x="-0.0498" y="4" relative="1" as="geometry">
            <mxPoint x="-4" y="4" as="offset" />
          </mxGeometry>
        </mxCell>
        <mxCell id="hD1sjiMyr9kNon0vksFS-29" value="&lt;font style=&quot;font-size: 11px;&quot;&gt;Type-C&lt;/font&gt;" style="rounded=1;whiteSpace=wrap;html=1;arcSize=46;rotation=90;" vertex="1" parent="1">
          <mxGeometry x="560" y="620" width="60" height="20" as="geometry" />
        </mxCell>
        <mxCell id="hD1sjiMyr9kNon0vksFS-30" value="" style="shape=flexArrow;endArrow=classic;startArrow=classic;html=1;rounded=0;fontColor=none;noLabel=1;strokeColor=#007FFF;endWidth=11.296296296296296;endSize=6.402777777777778;startWidth=11.296296296296296;startSize=6.963888888888889;exitX=0;exitY=0.5;exitDx=0;exitDy=0;" edge="1" parent="1">
          <mxGeometry width="100" height="100" relative="1" as="geometry">
            <mxPoint x="660" y="509.67" as="sourcePoint" />
            <mxPoint x="600" y="509.67" as="targetPoint" />
            <Array as="points">
              <mxPoint x="599.8" y="509.67" />
            </Array>
          </mxGeometry>
        </mxCell>
        <mxCell id="hD1sjiMyr9kNon0vksFS-31" value="USB" style="edgeLabel;html=1;align=center;verticalAlign=middle;resizable=0;points=[];fontColor=#007FFF;" vertex="1" connectable="0" parent="hD1sjiMyr9kNon0vksFS-30">
          <mxGeometry x="-0.0498" y="4" relative="1" as="geometry">
            <mxPoint x="-1" y="-4" as="offset" />
          </mxGeometry>
        </mxCell>
        <mxCell id="hD1sjiMyr9kNon0vksFS-32" value="CH343" style="whiteSpace=wrap;html=1;aspect=fixed;fontSize=11;" vertex="1" parent="1">
          <mxGeometry x="660" y="500" width="40" height="40" as="geometry" />
        </mxCell>
        <mxCell id="hD1sjiMyr9kNon0vksFS-33" value="" style="shape=flexArrow;endArrow=classic;startArrow=classic;html=1;rounded=0;fontColor=none;noLabel=1;strokeColor=#007FFF;exitX=0;exitY=0.875;exitDx=0;exitDy=0;exitPerimeter=0;endWidth=11.96911196911197;endSize=6.466409266409267;startWidth=16.32183908045977;startSize=6.878160919540231;entryX=0.492;entryY=-0.114;entryDx=0;entryDy=0;entryPerimeter=0;" edge="1" parent="1" source="hD1sjiMyr9kNon0vksFS-1" target="hD1sjiMyr9kNon0vksFS-29">
          <mxGeometry width="100" height="100" relative="1" as="geometry">
            <mxPoint x="775" y="620" as="sourcePoint" />
            <mxPoint x="650" y="630" as="targetPoint" />
            <Array as="points" />
          </mxGeometry>
        </mxCell>
        <mxCell id="hD1sjiMyr9kNon0vksFS-34" value="USB-OTG" style="edgeLabel;html=1;align=center;verticalAlign=middle;resizable=0;points=[];fontColor=#007FFF;" vertex="1" connectable="0" parent="hD1sjiMyr9kNon0vksFS-33">
          <mxGeometry x="-0.0498" y="4" relative="1" as="geometry">
            <mxPoint x="-3" y="-4" as="offset" />
          </mxGeometry>
        </mxCell>
        <mxCell id="hD1sjiMyr9kNon0vksFS-35" value="" style="shape=flexArrow;endArrow=classic;startArrow=classic;html=1;rounded=0;fontColor=none;noLabel=1;strokeColor=#007FFF;startWidth=13.888888888888888;startSize=6.334259259259259;endWidth=13.888888888888888;endSize=6.334259259259259;" edge="1" parent="1">
          <mxGeometry width="100" height="100" relative="1" as="geometry">
            <mxPoint x="775" y="509.67" as="sourcePoint" />
            <mxPoint x="700" y="509.67" as="targetPoint" />
            <Array as="points">
              <mxPoint x="730" y="509.67" />
            </Array>
          </mxGeometry>
        </mxCell>
        <mxCell id="hD1sjiMyr9kNon0vksFS-36" value="UART" style="edgeLabel;html=1;align=center;verticalAlign=middle;resizable=0;points=[];fontColor=#007FFF;" vertex="1" connectable="0" parent="hD1sjiMyr9kNon0vksFS-35">
          <mxGeometry x="-0.0498" y="4" relative="1" as="geometry">
            <mxPoint x="-3" y="-4" as="offset" />
          </mxGeometry>
        </mxCell>
        <mxCell id="hD1sjiMyr9kNon0vksFS-37" value="&lt;div&gt;&lt;br&gt;&lt;/div&gt;" style="whiteSpace=wrap;html=1;aspect=fixed;fontSize=11;" vertex="1" parent="1">
          <mxGeometry x="685" y="700" width="90" height="90" as="geometry" />
        </mxCell>
        <mxCell id="hD1sjiMyr9kNon0vksFS-40" value="&lt;font style=&quot;font-size: 11px;&quot;&gt;STM32F103&lt;/font&gt;" style="text;html=1;align=center;verticalAlign=middle;resizable=0;points=[];autosize=1;" vertex="1" parent="1">
          <mxGeometry x="690" y="710" width="80" height="30" as="geometry" />
        </mxCell>
        <mxCell id="hD1sjiMyr9kNon0vksFS-42" value="JLink&lt;div&gt;Firmware&lt;/div&gt;" style="text;html=1;align=center;verticalAlign=middle;resizable=0;points=[];autosize=1;strokeColor=#d6b656;fillColor=#fff2cc;" vertex="1" parent="1">
          <mxGeometry x="695" y="745" width="70" height="40" as="geometry" />
        </mxCell>
        <mxCell id="hD1sjiMyr9kNon0vksFS-43" value="" style="shape=flexArrow;endArrow=classic;startArrow=classic;html=1;rounded=0;fontColor=none;noLabel=1;strokeColor=#007FFF;exitX=0;exitY=0.875;exitDx=0;exitDy=0;exitPerimeter=0;entryX=0.5;entryY=0;entryDx=0;entryDy=0;startWidth=16.32183908045977;startSize=6.809195402298851;endWidth=12.413793103448278;endSize=6.340229885057472;" edge="1" parent="1" target="hD1sjiMyr9kNon0vksFS-37">
          <mxGeometry width="100" height="100" relative="1" as="geometry">
            <mxPoint x="775" y="630" as="sourcePoint" />
            <mxPoint x="580" y="680" as="targetPoint" />
            <Array as="points">
              <mxPoint x="730" y="630" />
            </Array>
          </mxGeometry>
        </mxCell>
        <mxCell id="hD1sjiMyr9kNon0vksFS-45" value="SWD" style="rounded=0;whiteSpace=wrap;html=1;rotation=90;" vertex="1" parent="1">
          <mxGeometry x="565" y="732.5" width="50" height="25" as="geometry" />
        </mxCell>
        <mxCell id="hD1sjiMyr9kNon0vksFS-46" value="" style="shape=flexArrow;endArrow=classic;startArrow=classic;html=1;rounded=0;fontColor=none;noLabel=1;strokeColor=#007FFF;entryX=0;entryY=0.5;entryDx=0;entryDy=0;startWidth=9;startSize=5.43;endWidth=5.666666666666667;endSize=5.966666666666667;exitX=0.5;exitY=0;exitDx=0;exitDy=0;" edge="1" parent="1" source="hD1sjiMyr9kNon0vksFS-45" target="hD1sjiMyr9kNon0vksFS-37">
          <mxGeometry width="100" height="100" relative="1" as="geometry">
            <mxPoint x="630" y="745" as="sourcePoint" />
            <mxPoint x="680" y="745" as="targetPoint" />
            <Array as="points" />
          </mxGeometry>
        </mxCell>
        <mxCell id="hD1sjiMyr9kNon0vksFS-47" value="SWD" style="edgeLabel;html=1;align=center;verticalAlign=middle;resizable=0;points=[];fontColor=#007FFF;" vertex="1" connectable="0" parent="hD1sjiMyr9kNon0vksFS-46">
          <mxGeometry x="-0.0498" y="4" relative="1" as="geometry">
            <mxPoint y="4" as="offset" />
          </mxGeometry>
        </mxCell>
        <mxCell id="hD1sjiMyr9kNon0vksFS-48" value="JLinkRemoteServer" style="text;html=1;align=center;verticalAlign=middle;resizable=0;points=[];autosize=1;strokeColor=#d6b656;fillColor=#fff2cc;" vertex="1" parent="1">
          <mxGeometry x="1020" y="750" width="130" height="30" as="geometry" />
        </mxCell>
        <mxCell id="hD1sjiMyr9kNon0vksFS-49" value="&lt;font style=&quot;font-size: 11px;&quot;&gt;Type-C&lt;/font&gt;" style="rounded=1;whiteSpace=wrap;html=1;arcSize=46;rotation=90;" vertex="1" parent="1">
          <mxGeometry x="560" y="510" width="60" height="20" as="geometry" />
        </mxCell>
        <mxCell id="hD1sjiMyr9kNon0vksFS-56" value="" style="shape=loopLimit;whiteSpace=wrap;html=1;size=7;" vertex="1" parent="1">
          <mxGeometry x="580" y="130" width="20" height="40" as="geometry" />
        </mxCell>
        <mxCell id="hD1sjiMyr9kNon0vksFS-57" value="" style="shape=flexArrow;endArrow=classic;html=1;rounded=0;endWidth=8.076923076923077;endSize=5.25576923076923;fillColor=#f8cecc;strokeColor=#b85450;" edge="1" parent="1">
          <mxGeometry width="50" height="50" relative="1" as="geometry">
            <mxPoint x="600" y="149.89999999999998" as="sourcePoint" />
            <mxPoint x="660" y="149.89999999999998" as="targetPoint" />
          </mxGeometry>
        </mxCell>
        <mxCell id="hD1sjiMyr9kNon0vksFS-58" value="+24V" style="edgeLabel;html=1;align=center;verticalAlign=middle;resizable=0;points=[];fontColor=#FF6666;" vertex="1" connectable="0" parent="hD1sjiMyr9kNon0vksFS-57">
          <mxGeometry x="-0.4533" relative="1" as="geometry">
            <mxPoint x="4" as="offset" />
          </mxGeometry>
        </mxCell>
        <mxCell id="hD1sjiMyr9kNon0vksFS-59" value="XT30" style="text;html=1;align=center;verticalAlign=middle;resizable=0;points=[];autosize=1;strokeColor=none;fillColor=none;rotation=90;" vertex="1" parent="1">
          <mxGeometry x="565" y="135" width="50" height="30" as="geometry" />
        </mxCell>
        <mxCell id="hD1sjiMyr9kNon0vksFS-60" value="RY8411" style="whiteSpace=wrap;html=1;aspect=fixed;fontSize=9;" vertex="1" parent="1">
          <mxGeometry x="660" y="130" width="40" height="40" as="geometry" />
        </mxCell>
        <mxCell id="hD1sjiMyr9kNon0vksFS-61" value="" style="shape=flexArrow;endArrow=classic;html=1;rounded=0;endWidth=8.076923076923077;endSize=5.25576923076923;fillColor=#f8cecc;strokeColor=#b85450;entryX=0;entryY=0.5;entryDx=0;entryDy=0;" edge="1" parent="1" target="hD1sjiMyr9kNon0vksFS-63">
          <mxGeometry width="50" height="50" relative="1" as="geometry">
            <mxPoint x="700" y="149.79999999999995" as="sourcePoint" />
            <mxPoint x="760" y="149.79999999999995" as="targetPoint" />
          </mxGeometry>
        </mxCell>
        <mxCell id="hD1sjiMyr9kNon0vksFS-62" value="+5V" style="edgeLabel;html=1;align=center;verticalAlign=middle;resizable=0;points=[];fontColor=#FF6666;" vertex="1" connectable="0" parent="hD1sjiMyr9kNon0vksFS-61">
          <mxGeometry x="-0.4533" relative="1" as="geometry">
            <mxPoint x="-18" as="offset" />
          </mxGeometry>
        </mxCell>
        <mxCell id="hD1sjiMyr9kNon0vksFS-63" value="EA3059" style="whiteSpace=wrap;html=1;fontSize=13;fontStyle=1" vertex="1" parent="1">
          <mxGeometry x="790" y="130" width="410" height="40" as="geometry" />
        </mxCell>
        <mxCell id="hD1sjiMyr9kNon0vksFS-64" value="+1V2" style="swimlane;whiteSpace=wrap;html=1;" vertex="1" parent="1">
          <mxGeometry x="790" y="225" width="95" height="195" as="geometry" />
        </mxCell>
        <mxCell id="hD1sjiMyr9kNon0vksFS-65" value="+VCPU" style="text;html=1;align=center;verticalAlign=middle;resizable=0;points=[];autosize=1;strokeColor=#6c8ebf;fillColor=#dae8fc;" vertex="1" parent="hD1sjiMyr9kNon0vksFS-64">
          <mxGeometry x="20" y="30" width="60" height="30" as="geometry" />
        </mxCell>
        <mxCell id="hD1sjiMyr9kNon0vksFS-66" value="+VSYS" style="text;html=1;align=center;verticalAlign=middle;resizable=0;points=[];autosize=1;strokeColor=#6c8ebf;fillColor=#dae8fc;" vertex="1" parent="hD1sjiMyr9kNon0vksFS-64">
          <mxGeometry x="20" y="59.67" width="60" height="30" as="geometry" />
        </mxCell>
        <mxCell id="hD1sjiMyr9kNon0vksFS-76" value="+VEPHY" style="text;html=1;align=center;verticalAlign=middle;resizable=0;points=[];autosize=1;strokeColor=#6c8ebf;fillColor=#dae8fc;" vertex="1" parent="hD1sjiMyr9kNon0vksFS-64">
          <mxGeometry x="15" y="99.67" width="70" height="30" as="geometry" />
        </mxCell>
        <mxCell id="hD1sjiMyr9kNon0vksFS-67" value="+1V8" style="swimlane;whiteSpace=wrap;html=1;" vertex="1" parent="1">
          <mxGeometry x="900" y="225" width="95" height="195" as="geometry" />
        </mxCell>
        <mxCell id="hD1sjiMyr9kNon0vksFS-68" value="+VDRAM" style="text;html=1;align=center;verticalAlign=middle;resizable=0;points=[];autosize=1;strokeColor=#6c8ebf;fillColor=#dae8fc;" vertex="1" parent="hD1sjiMyr9kNon0vksFS-67">
          <mxGeometry x="15" y="30" width="70" height="30" as="geometry" />
        </mxCell>
        <mxCell id="hD1sjiMyr9kNon0vksFS-69" value="+VSYS" style="text;html=1;align=center;verticalAlign=middle;resizable=0;points=[];autosize=1;strokeColor=#6c8ebf;fillColor=#dae8fc;" vertex="1" parent="hD1sjiMyr9kNon0vksFS-67">
          <mxGeometry x="20" y="70" width="60" height="30" as="geometry" />
        </mxCell>
        <mxCell id="hD1sjiMyr9kNon0vksFS-70" value="+&lt;span style=&quot;background-color: transparent; color: light-dark(rgb(0, 0, 0), rgb(255, 255, 255));&quot;&gt;3V3&lt;/span&gt;" style="swimlane;whiteSpace=wrap;html=1;" vertex="1" parent="1">
          <mxGeometry x="1010" y="225" width="190" height="195" as="geometry" />
        </mxCell>
        <mxCell id="hD1sjiMyr9kNon0vksFS-77" value="+VRTC" style="text;html=1;align=center;verticalAlign=middle;resizable=0;points=[];autosize=1;strokeColor=#6c8ebf;fillColor=#dae8fc;" vertex="1" parent="hD1sjiMyr9kNon0vksFS-70">
          <mxGeometry x="20" y="30" width="60" height="30" as="geometry" />
        </mxCell>
        <mxCell id="hD1sjiMyr9kNon0vksFS-78" value="+VIO" style="text;html=1;align=center;verticalAlign=middle;resizable=0;points=[];autosize=1;strokeColor=#6c8ebf;fillColor=#dae8fc;" vertex="1" parent="hD1sjiMyr9kNon0vksFS-70">
          <mxGeometry x="25" y="70" width="50" height="30" as="geometry" />
        </mxCell>
        <mxCell id="hD1sjiMyr9kNon0vksFS-72" value="+VWIFI" style="text;html=1;align=center;verticalAlign=middle;resizable=0;points=[];autosize=1;strokeColor=#d6b656;fillColor=#fff2cc;" vertex="1" parent="hD1sjiMyr9kNon0vksFS-70">
          <mxGeometry x="112.5" y="70" width="60" height="30" as="geometry" />
        </mxCell>
        <mxCell id="hD1sjiMyr9kNon0vksFS-74" value="+VSD" style="text;html=1;align=center;verticalAlign=middle;resizable=0;points=[];autosize=1;strokeColor=#d6b656;fillColor=#fff2cc;" vertex="1" parent="hD1sjiMyr9kNon0vksFS-70">
          <mxGeometry x="110" y="110" width="60" height="30" as="geometry" />
        </mxCell>
        <mxCell id="hD1sjiMyr9kNon0vksFS-71" value="+VJLINK" style="text;html=1;align=center;verticalAlign=middle;resizable=0;points=[];autosize=1;strokeColor=#d6b656;fillColor=#fff2cc;" vertex="1" parent="hD1sjiMyr9kNon0vksFS-70">
          <mxGeometry x="107.5" y="30" width="70" height="30" as="geometry" />
        </mxCell>
        <mxCell id="hD1sjiMyr9kNon0vksFS-75" value="+VFLASH" style="text;html=1;align=center;verticalAlign=middle;resizable=0;points=[];autosize=1;strokeColor=#d6b656;fillColor=#fff2cc;" vertex="1" parent="hD1sjiMyr9kNon0vksFS-70">
          <mxGeometry x="100" y="150" width="80" height="30" as="geometry" />
        </mxCell>
        <mxCell id="hD1sjiMyr9kNon0vksFS-79" value="" style="shape=flexArrow;endArrow=classic;html=1;rounded=0;endWidth=8.076923076923077;endSize=5.25576923076923;fillColor=#f8cecc;strokeColor=#b85450;" edge="1" parent="1">
          <mxGeometry width="50" height="50" relative="1" as="geometry">
            <mxPoint x="700" y="149.79999999999995" as="sourcePoint" />
            <mxPoint x="730" y="220" as="targetPoint" />
            <Array as="points">
              <mxPoint x="730" y="150" />
            </Array>
          </mxGeometry>
        </mxCell>
        <mxCell id="hD1sjiMyr9kNon0vksFS-80" value="+5V" style="edgeLabel;html=1;align=center;verticalAlign=middle;resizable=0;points=[];fontColor=#FF6666;" vertex="1" connectable="0" parent="hD1sjiMyr9kNon0vksFS-79">
          <mxGeometry x="-0.4533" relative="1" as="geometry">
            <mxPoint x="-18" as="offset" />
          </mxGeometry>
        </mxCell>
        <mxCell id="hD1sjiMyr9kNon0vksFS-85" value="" style="edgeStyle=orthogonalEdgeStyle;rounded=0;orthogonalLoop=1;jettySize=auto;html=1;" edge="1" parent="1" source="hD1sjiMyr9kNon0vksFS-81" target="hD1sjiMyr9kNon0vksFS-82">
          <mxGeometry relative="1" as="geometry" />
        </mxCell>
        <mxCell id="hD1sjiMyr9kNon0vksFS-81" value="+3V&lt;div&gt;LDO&lt;/div&gt;" style="whiteSpace=wrap;html=1;aspect=fixed;fontSize=9;" vertex="1" parent="1">
          <mxGeometry x="710" y="220" width="40" height="40" as="geometry" />
        </mxCell>
        <mxCell id="hD1sjiMyr9kNon0vksFS-82" value="+VAVCC" style="text;html=1;align=center;verticalAlign=middle;resizable=0;points=[];autosize=1;strokeColor=#6c8ebf;fillColor=#dae8fc;" vertex="1" parent="1">
          <mxGeometry x="695" y="289.67" width="70" height="30" as="geometry" />
        </mxCell>
        <mxCell id="hD1sjiMyr9kNon0vksFS-83" value="" style="shape=flexArrow;endArrow=classic;html=1;rounded=0;endWidth=8.076923076923077;endSize=5.25576923076923;fillColor=#f8cecc;strokeColor=#b85450;entryX=0.5;entryY=0;entryDx=0;entryDy=0;entryPerimeter=0;" edge="1" parent="1" target="hD1sjiMyr9kNon0vksFS-82">
          <mxGeometry width="50" height="50" relative="1" as="geometry">
            <mxPoint x="730" y="260" as="sourcePoint" />
            <mxPoint x="790" y="260" as="targetPoint" />
          </mxGeometry>
        </mxCell>
        <mxCell id="hD1sjiMyr9kNon0vksFS-84" value="+3V0" style="edgeLabel;html=1;align=center;verticalAlign=middle;resizable=0;points=[];fontColor=#FF6666;" vertex="1" connectable="0" parent="hD1sjiMyr9kNon0vksFS-83">
          <mxGeometry x="-0.4533" relative="1" as="geometry">
            <mxPoint y="4" as="offset" />
          </mxGeometry>
        </mxCell>
        <mxCell id="hD1sjiMyr9kNon0vksFS-86" value="" style="shape=flexArrow;endArrow=classic;html=1;rounded=0;endWidth=8.076923076923077;endSize=5.25576923076923;fillColor=#f8cecc;strokeColor=#b85450;entryX=0.5;entryY=0;entryDx=0;entryDy=0;" edge="1" parent="1" target="hD1sjiMyr9kNon0vksFS-64">
          <mxGeometry width="50" height="50" relative="1" as="geometry">
            <mxPoint x="837.26" y="170" as="sourcePoint" />
            <mxPoint x="837.26" y="210" as="targetPoint" />
          </mxGeometry>
        </mxCell>
        <mxCell id="hD1sjiMyr9kNon0vksFS-87" value="+1V2" style="edgeLabel;html=1;align=center;verticalAlign=middle;resizable=0;points=[];fontColor=#FF6666;" vertex="1" connectable="0" parent="hD1sjiMyr9kNon0vksFS-86">
          <mxGeometry x="-0.4533" relative="1" as="geometry">
            <mxPoint y="4" as="offset" />
          </mxGeometry>
        </mxCell>
        <mxCell id="hD1sjiMyr9kNon0vksFS-88" value="" style="shape=flexArrow;endArrow=classic;html=1;rounded=0;endWidth=8.076923076923077;endSize=5.25576923076923;fillColor=#f8cecc;strokeColor=#b85450;entryX=0.5;entryY=0;entryDx=0;entryDy=0;" edge="1" parent="1">
          <mxGeometry width="50" height="50" relative="1" as="geometry">
            <mxPoint x="947.13" y="170" as="sourcePoint" />
            <mxPoint x="947.87" y="225" as="targetPoint" />
          </mxGeometry>
        </mxCell>
        <mxCell id="hD1sjiMyr9kNon0vksFS-89" value="+1V8" style="edgeLabel;html=1;align=center;verticalAlign=middle;resizable=0;points=[];fontColor=#FF6666;" vertex="1" connectable="0" parent="hD1sjiMyr9kNon0vksFS-88">
          <mxGeometry x="-0.4533" relative="1" as="geometry">
            <mxPoint y="4" as="offset" />
          </mxGeometry>
        </mxCell>
        <mxCell id="hD1sjiMyr9kNon0vksFS-90" value="" style="shape=flexArrow;endArrow=classic;html=1;rounded=0;endWidth=8.076923076923077;endSize=5.25576923076923;fillColor=#f8cecc;strokeColor=#b85450;entryX=0.5;entryY=0;entryDx=0;entryDy=0;" edge="1" parent="1">
          <mxGeometry width="50" height="50" relative="1" as="geometry">
            <mxPoint x="1104.63" y="170" as="sourcePoint" />
            <mxPoint x="1105.3700000000001" y="225" as="targetPoint" />
          </mxGeometry>
        </mxCell>
        <mxCell id="hD1sjiMyr9kNon0vksFS-91" value="+3V3" style="edgeLabel;html=1;align=center;verticalAlign=middle;resizable=0;points=[];fontColor=#FF6666;" vertex="1" connectable="0" parent="hD1sjiMyr9kNon0vksFS-90">
          <mxGeometry x="-0.4533" relative="1" as="geometry">
            <mxPoint y="4" as="offset" />
          </mxGeometry>
        </mxCell>
        <mxCell id="hD1sjiMyr9kNon0vksFS-92" value="蓝色框为V3S供电" style="text;html=1;align=center;verticalAlign=middle;resizable=0;points=[];autosize=1;strokeColor=#6c8ebf;fillColor=#dae8fc;" vertex="1" parent="1">
          <mxGeometry x="580" y="355.67" width="113" height="26" as="geometry" />
        </mxCell>
        <mxCell id="hD1sjiMyr9kNon0vksFS-93" value="黄色为外设供电" style="text;html=1;align=center;verticalAlign=middle;resizable=0;points=[];autosize=1;strokeColor=#d6b656;fillColor=#fff2cc;" vertex="1" parent="1">
          <mxGeometry x="580" y="391.67" width="102" height="26" as="geometry" />
        </mxCell>
      </root>
    </mxGraphModel>
  </diagram>
</mxfile>
